<svg xmlns="http://www.w3.org/2000/svg" width="226.52999999999997" height="35" viewBox="0 0 226.52999999999997 35"><rect class="svg__rect" x="0" y="0" width="65.33" height="35" fill="#CE422B"/><rect class="svg__rect" x="63.33" y="0" width="163.2" height="35" fill="#1E2020"/><path class="svg__text" d="M15.70 22L14.22 22L14.22 13.47L17.22 13.47Q18.69 13.47 19.50 14.13Q20.30 14.79 20.30 16.05L20.30 16.05Q20.30 16.90 19.89 17.48Q19.47 18.06 18.73 18.37L18.73 18.37L20.65 21.92L20.65 22L19.06 22L17.35 18.71L15.70 18.71L15.70 22ZM15.70 14.66L15.70 17.52L17.22 17.52Q17.97 17.52 18.39 17.15Q18.82 16.77 18.82 16.11L18.82 16.11Q18.82 15.43 18.43 15.05Q18.04 14.68 17.26 14.66L17.26 14.66L15.70 14.66ZM24.56 19.16L24.56 19.16L24.56 13.47L26.04 13.47L26.04 19.18Q26.04 20.03 26.47 20.48Q26.90 20.93 27.75 20.93L27.75 20.93Q29.46 20.93 29.46 19.13L29.46 19.13L29.46 13.47L30.93 13.47L30.93 19.17Q30.93 20.53 30.06 21.32Q29.19 22.12 27.75 22.12L27.75 22.12Q26.28 22.12 25.42 21.33Q24.56 20.55 24.56 19.16ZM35.07 19.42L35.07 19.42L36.55 19.42Q36.55 20.15 37.03 20.55Q37.51 20.95 38.41 20.95L38.41 20.95Q39.18 20.95 39.57 20.63Q39.96 20.32 39.96 19.80L39.96 19.80Q39.96 19.24 39.57 18.94Q39.17 18.63 38.14 18.32Q37.11 18.01 36.50 17.63L36.50 17.63Q35.33 16.90 35.33 15.72L35.33 15.72Q35.33 14.69 36.18 14.02Q37.02 13.35 38.36 13.35L38.36 13.35Q39.25 13.35 39.95 13.68Q40.64 14.01 41.04 14.61Q41.44 15.22 41.44 15.96L41.44 15.96L39.96 15.96Q39.96 15.29 39.54 14.91Q39.13 14.54 38.35 14.54L38.35 14.54Q37.62 14.54 37.22 14.85Q36.82 15.16 36.82 15.71L36.82 15.71Q36.82 16.18 37.25 16.50Q37.68 16.81 38.68 17.10Q39.68 17.40 40.28 17.78Q40.88 18.16 41.16 18.65Q41.45 19.13 41.45 19.79L41.45 19.79Q41.45 20.86 40.63 21.49Q39.81 22.12 38.41 22.12L38.41 22.12Q37.48 22.12 36.71 21.77Q35.93 21.43 35.50 20.83Q35.07 20.22 35.07 19.42ZM47.42 14.66L44.78 14.66L44.78 13.47L51.55 13.47L51.55 14.66L48.89 14.66L48.89 22L47.42 22L47.42 14.66Z" fill="#1F1F1F"/><path class="svg__text" d="M78.94 22L76.51 22L80.22 13.60L82.56 13.60L86.28 22L83.81 22L83.15 20.37L79.60 20.37L78.94 22ZM81.37 15.93L80.29 18.61L82.45 18.61L81.37 15.93ZM90.36 18.26L90.36 18.26L90.36 13.60L92.74 13.60L92.74 18.19Q92.74 20.20 94.33 20.20L94.33 20.20Q95.92 20.20 95.92 18.19L95.92 18.19L95.92 13.60L98.26 13.60L98.26 18.26Q98.26 20.13 97.22 21.15Q96.18 22.17 94.31 22.17L94.31 22.17Q92.44 22.17 91.40 21.15Q90.36 20.13 90.36 18.26ZM105.14 15.48L102.55 15.48L102.55 13.60L110.08 13.60L110.08 15.48L107.51 15.48L107.51 22L105.14 22L105.14 15.48ZM114.02 17.80L114.02 17.80Q114.02 16.55 114.63 15.55Q115.23 14.56 116.29 14.00Q117.36 13.43 118.69 13.43L118.69 13.43Q120.02 13.43 121.08 14.00Q122.14 14.56 122.75 15.55Q123.36 16.55 123.36 17.80L123.36 17.80Q123.36 19.05 122.75 20.04Q122.14 21.04 121.08 21.60Q120.02 22.17 118.69 22.17L118.69 22.17Q117.36 22.17 116.29 21.60Q115.23 21.04 114.63 20.04Q114.02 19.05 114.02 17.80ZM116.42 17.80L116.42 17.80Q116.42 18.51 116.72 19.05Q117.02 19.60 117.54 19.90Q118.05 20.20 118.69 20.20L118.69 20.20Q119.32 20.20 119.84 19.90Q120.36 19.60 120.65 19.05Q120.95 18.51 120.95 17.80L120.95 17.80Q120.95 17.09 120.65 16.54Q120.36 16 119.84 15.70Q119.32 15.40 118.69 15.40L118.69 15.40Q118.05 15.40 117.53 15.70Q117.02 16 116.72 16.54Q116.42 17.09 116.42 17.80ZM131.32 19.46L127.82 19.46L127.82 17.71L131.32 17.71L131.32 19.46ZM135.64 21.24L135.64 21.24L136.42 19.49Q136.98 19.86 137.72 20.09Q138.47 20.32 139.19 20.32L139.19 20.32Q140.55 20.32 140.56 19.64L140.56 19.64Q140.56 19.28 140.17 19.11Q139.78 18.93 138.91 18.74L138.91 18.74Q137.96 18.53 137.33 18.30Q136.69 18.06 136.24 17.55Q135.78 17.03 135.78 16.16L135.78 16.16Q135.78 15.39 136.20 14.77Q136.62 14.15 137.46 13.79Q138.29 13.43 139.50 13.43L139.50 13.43Q140.32 13.43 141.13 13.62Q141.94 13.80 142.55 14.17L142.55 14.17L141.82 15.93Q140.62 15.28 139.49 15.28L139.49 15.28Q138.78 15.28 138.46 15.49Q138.13 15.70 138.13 16.04L138.13 16.04Q138.13 16.37 138.52 16.54Q138.90 16.71 139.75 16.89L139.75 16.89Q140.71 17.10 141.34 17.33Q141.97 17.56 142.43 18.07Q142.90 18.58 142.90 19.46L142.90 19.46Q142.90 20.21 142.48 20.83Q142.06 21.44 141.22 21.80Q140.38 22.17 139.18 22.17L139.18 22.17Q138.16 22.17 137.20 21.92Q136.23 21.67 135.64 21.24ZM154.22 22L147.47 22L147.47 13.60L154.06 13.60L154.06 15.44L149.83 15.44L149.83 16.85L153.56 16.85L153.56 18.63L149.83 18.63L149.83 20.17L154.22 20.17L154.22 22ZM165.41 22L159.02 22L159.02 13.60L161.40 13.60L161.40 20.11L165.41 20.11L165.41 22ZM176.21 22L169.83 22L169.83 13.60L172.21 13.60L172.21 20.11L176.21 20.11L176.21 22ZM185.17 22L180.63 22L180.63 13.60L184.93 13.60Q186.54 13.60 187.38 14.19Q188.22 14.79 188.22 15.79L188.22 15.79Q188.22 16.39 187.92 16.87Q187.63 17.34 187.09 17.62L187.09 17.62Q187.81 17.87 188.22 18.41Q188.62 18.94 188.62 19.70L188.62 19.70Q188.62 20.80 187.74 21.40Q186.85 22 185.17 22L185.17 22ZM182.99 18.58L182.99 20.28L184.98 20.28Q186.23 20.28 186.23 19.43L186.23 19.43Q186.23 18.58 184.98 18.58L184.98 18.58L182.99 18.58ZM182.99 15.31L182.99 16.94L184.62 16.94Q185.82 16.94 185.82 16.12L185.82 16.12Q185.82 15.31 184.62 15.31L184.62 15.31L182.99 15.31ZM192.91 17.80L192.91 17.80Q192.91 16.55 193.52 15.55Q194.12 14.56 195.18 14.00Q196.25 13.43 197.58 13.43L197.58 13.43Q198.91 13.43 199.97 14.00Q201.03 14.56 201.64 15.55Q202.25 16.55 202.25 17.80L202.25 17.80Q202.25 19.05 201.64 20.04Q201.03 21.04 199.97 21.60Q198.91 22.17 197.58 22.17L197.58 22.17Q196.25 22.17 195.18 21.60Q194.12 21.04 193.52 20.04Q192.91 19.05 192.91 17.80ZM195.31 17.80L195.31 17.80Q195.31 18.51 195.61 19.05Q195.91 19.60 196.43 19.90Q196.94 20.20 197.58 20.20L197.58 20.20Q198.22 20.20 198.73 19.90Q199.25 19.60 199.55 19.05Q199.84 18.51 199.84 17.80L199.84 17.80Q199.84 17.09 199.55 16.54Q199.25 16 198.73 15.70Q198.22 15.40 197.58 15.40L197.58 15.40Q196.94 15.40 196.43 15.70Q195.91 16 195.61 16.54Q195.31 17.09 195.31 17.80ZM208.77 15.48L206.18 15.48L206.18 13.60L213.71 13.60L213.71 15.48L211.14 15.48L211.14 22L208.77 22L208.77 15.48Z" fill="#F6EAE0" x="76.33"/></svg>