<svg xmlns="http://www.w3.org/2000/svg" width="255.56" height="35" viewBox="0 0 255.56 35"><rect class="svg__rect" x="0" y="0" width="204.12" height="35" fill="#CE422B"/><rect class="svg__rect" x="202.12" y="0" width="53.44" height="35" fill="#1E2020"/><path class="svg__text" d="M15.70 22L14.22 22L14.22 13.47L17.22 13.47Q18.69 13.47 19.50 14.13Q20.30 14.79 20.30 16.05L20.30 16.05Q20.30 16.90 19.89 17.48Q19.47 18.06 18.73 18.37L18.73 18.37L20.65 21.92L20.65 22L19.06 22L17.35 18.71L15.70 18.71L15.70 22ZM15.70 14.66L15.70 17.52L17.22 17.52Q17.97 17.52 18.39 17.15Q18.82 16.77 18.82 16.11L18.82 16.11Q18.82 15.43 18.43 15.05Q18.04 14.68 17.26 14.66L17.26 14.66L15.70 14.66ZM24.56 19.16L24.56 19.16L24.56 13.47L26.04 13.47L26.04 19.18Q26.04 20.03 26.47 20.48Q26.90 20.93 27.75 20.93L27.75 20.93Q29.46 20.93 29.46 19.13L29.46 19.13L29.46 13.47L30.93 13.47L30.93 19.17Q30.93 20.53 30.06 21.32Q29.19 22.12 27.75 22.12L27.75 22.12Q26.28 22.12 25.42 21.33Q24.56 20.55 24.56 19.16ZM35.07 19.42L35.07 19.42L36.55 19.42Q36.55 20.15 37.03 20.55Q37.51 20.95 38.41 20.95L38.41 20.95Q39.18 20.95 39.57 20.63Q39.96 20.32 39.96 19.80L39.96 19.80Q39.96 19.24 39.57 18.94Q39.17 18.63 38.14 18.32Q37.11 18.01 36.50 17.63L36.50 17.63Q35.33 16.90 35.33 15.72L35.33 15.72Q35.33 14.69 36.18 14.02Q37.02 13.35 38.36 13.35L38.36 13.35Q39.25 13.35 39.95 13.68Q40.64 14.01 41.04 14.61Q41.44 15.22 41.44 15.96L41.44 15.96L39.96 15.96Q39.96 15.29 39.54 14.91Q39.13 14.54 38.35 14.54L38.35 14.54Q37.62 14.54 37.22 14.85Q36.82 15.16 36.82 15.71L36.82 15.71Q36.82 16.18 37.25 16.50Q37.68 16.81 38.68 17.10Q39.68 17.40 40.28 17.78Q40.88 18.16 41.16 18.65Q41.45 19.13 41.45 19.79L41.45 19.79Q41.45 20.86 40.63 21.49Q39.81 22.12 38.41 22.12L38.41 22.12Q37.48 22.12 36.71 21.77Q35.93 21.43 35.50 20.83Q35.07 20.22 35.07 19.42ZM47.42 14.66L44.78 14.66L44.78 13.47L51.55 13.47L51.55 14.66L48.89 14.66L48.89 22L47.42 22L47.42 14.66ZM63.90 18.95L60.83 18.95L60.83 17.80L63.90 17.80L63.90 18.95ZM74.96 22L73.42 22L76.64 13.47L77.97 13.47L81.20 22L79.65 22L78.96 20.01L75.65 20.01L74.96 22ZM77.31 15.28L76.07 18.82L78.54 18.82L77.31 15.28ZM85.02 19.16L85.02 19.16L85.02 13.47L86.50 13.47L86.50 19.18Q86.50 20.03 86.93 20.48Q87.37 20.93 88.21 20.93L88.21 20.93Q89.92 20.93 89.92 19.13L89.92 19.13L89.92 13.47L91.40 13.47L91.40 19.17Q91.40 20.53 90.53 21.32Q89.66 22.12 88.21 22.12L88.21 22.12Q86.74 22.12 85.88 21.33Q85.02 20.55 85.02 19.16ZM97.65 14.66L95.01 14.66L95.01 13.47L101.78 13.47L101.78 14.66L99.12 14.66L99.12 22L97.65 22L97.65 14.66ZM105.27 18.00L105.27 18.00L105.27 17.52Q105.27 16.28 105.71 15.32Q106.15 14.37 106.96 13.86Q107.76 13.35 108.81 13.35Q109.85 13.35 110.65 13.85Q111.46 14.35 111.90 15.29Q112.34 16.23 112.34 17.48L112.34 17.48L112.34 17.96Q112.34 19.21 111.91 20.16Q111.48 21.10 110.67 21.61Q109.87 22.12 108.82 22.12L108.82 22.12Q107.78 22.12 106.97 21.61Q106.16 21.10 105.71 20.17Q105.27 19.23 105.27 18.00ZM106.75 17.46L106.75 17.96Q106.75 19.36 107.30 20.13Q107.84 20.90 108.82 20.90L108.82 20.90Q109.80 20.90 110.33 20.15Q110.86 19.40 110.86 17.96L110.86 17.96L110.86 17.51Q110.86 16.09 110.33 15.34Q109.79 14.58 108.81 14.58L108.81 14.58Q107.84 14.58 107.30 15.33Q106.76 16.09 106.75 17.46L106.75 17.46ZM119.43 18.95L116.36 18.95L116.36 17.80L119.43 17.80L119.43 18.95ZM123.30 19.42L123.30 19.42L124.78 19.42Q124.78 20.15 125.26 20.55Q125.74 20.95 126.64 20.95L126.64 20.95Q127.41 20.95 127.80 20.63Q128.19 20.32 128.19 19.80L128.19 19.80Q128.19 19.24 127.80 18.94Q127.40 18.63 126.37 18.32Q125.34 18.01 124.73 17.63L124.73 17.63Q123.56 16.90 123.56 15.72L123.56 15.72Q123.56 14.69 124.41 14.02Q125.25 13.35 126.59 13.35L126.59 13.35Q127.48 13.35 128.18 13.68Q128.87 14.01 129.27 14.61Q129.67 15.22 129.67 15.96L129.67 15.96L128.19 15.96Q128.19 15.29 127.77 14.91Q127.36 14.54 126.58 14.54L126.58 14.54Q125.85 14.54 125.45 14.85Q125.05 15.16 125.05 15.71L125.05 15.71Q125.05 16.18 125.48 16.50Q125.91 16.81 126.91 17.10Q127.91 17.40 128.51 17.78Q129.11 18.16 129.39 18.65Q129.68 19.13 129.68 19.79L129.68 19.79Q129.68 20.86 128.86 21.49Q128.04 22.12 126.64 22.12L126.64 22.12Q125.72 22.12 124.94 21.77Q124.16 21.43 123.73 20.83Q123.30 20.22 123.30 19.42ZM139.54 22L133.97 22L133.97 13.47L139.50 13.47L139.50 14.66L135.45 14.66L135.45 17.02L138.95 17.02L138.95 18.19L135.45 18.19L135.45 20.82L139.54 20.82L139.54 22ZM149.09 22L143.74 22L143.74 13.47L145.22 13.47L145.22 20.82L149.09 20.82L149.09 22ZM158.57 22L153.22 22L153.22 13.47L154.70 13.47L154.70 20.82L158.57 20.82L158.57 22ZM165.81 22L162.70 22L162.70 13.47L165.62 13.47Q167.07 13.47 167.83 14.05Q168.58 14.63 168.58 15.78L168.58 15.78Q168.58 16.36 168.27 16.83Q167.95 17.30 167.34 17.56L167.34 17.56Q168.03 17.75 168.41 18.26Q168.79 18.78 168.79 19.51L168.79 19.51Q168.79 20.71 168.02 21.36Q167.25 22 165.81 22L165.81 22ZM164.18 18.15L164.18 20.82L165.83 20.82Q166.53 20.82 166.92 20.47Q167.31 20.13 167.31 19.51L167.31 19.51Q167.31 18.18 165.95 18.15L165.95 18.15L164.18 18.15ZM164.18 14.66L164.18 17.06L165.64 17.06Q166.33 17.06 166.72 16.75Q167.11 16.43 167.11 15.86L167.11 15.86Q167.11 15.23 166.75 14.95Q166.39 14.66 165.62 14.66L165.62 14.66L164.18 14.66ZM172.99 18.00L172.99 18.00L172.99 17.52Q172.99 16.28 173.43 15.32Q173.87 14.37 174.68 13.86Q175.48 13.35 176.53 13.35Q177.57 13.35 178.38 13.85Q179.18 14.35 179.62 15.29Q180.06 16.23 180.07 17.48L180.07 17.48L180.07 17.96Q180.07 19.21 179.63 20.16Q179.20 21.10 178.39 21.61Q177.59 22.12 176.54 22.12L176.54 22.12Q175.50 22.12 174.69 21.61Q173.88 21.10 173.44 20.17Q172.99 19.23 172.99 18.00ZM174.47 17.46L174.47 17.96Q174.47 19.36 175.02 20.13Q175.57 20.90 176.54 20.90L176.54 20.90Q177.52 20.90 178.05 20.15Q178.58 19.40 178.58 17.96L178.58 17.96L178.58 17.51Q178.58 16.09 178.05 15.34Q177.51 14.58 176.53 14.58L176.53 14.58Q175.57 14.58 175.02 15.33Q174.48 16.09 174.47 17.46L174.47 17.46ZM186.21 14.66L183.58 14.66L183.58 13.47L190.34 13.47L190.34 14.66L187.68 14.66L187.68 22L186.21 22L186.21 14.66Z" fill="#1F1F1F"/><path class="svg__text" d="M215.79 20.75L215.79 20.75Q215.79 20.15 216.18 19.78Q216.57 19.41 217.16 19.41L217.16 19.41Q217.76 19.41 218.14 19.78Q218.53 20.15 218.53 20.75L218.53 20.75Q218.53 21.34 218.14 21.72Q217.75 22.11 217.16 22.11L217.16 22.11Q216.58 22.11 216.19 21.72Q215.79 21.34 215.79 20.75ZM225.57 22L223.19 22L223.19 13.60L227.03 13.60Q228.17 13.60 229.01 13.98Q229.85 14.35 230.31 15.06Q230.76 15.76 230.76 16.71L230.76 16.71Q230.76 17.66 230.31 18.35Q229.85 19.05 229.01 19.42Q228.17 19.80 227.03 19.80L227.03 19.80L225.57 19.80L225.57 22ZM225.57 15.47L225.57 17.93L226.88 17.93Q227.62 17.93 227.99 17.61Q228.36 17.29 228.36 16.71L228.36 16.71Q228.36 16.12 227.99 15.80Q227.62 15.47 226.88 15.47L226.88 15.47L225.57 15.47ZM237.64 18.95L234.44 13.60L236.94 13.60L238.94 16.94L240.93 13.60L243.23 13.60L240.01 18.99L240.01 22L237.64 22L237.64 18.95Z" fill="#F6EAE0" x="215.12"/></svg>